<mxfile host="app.diagrams.net" modified="2024-03-07T07:27:07.936Z" agent="Mozilla/5.0 (Windows NT 10.0; Win64; x64) AppleWebKit/537.36 (KHTML, like Gecko) Chrome/121.0.0.0 Safari/537.36 OPR/107.0.0.0" etag="hyAqWvkX7vT_KVfXbI6P" version="24.0.1" type="github">
  <diagram name="Page-1" id="whBFJ6Lh2_yIgHCr2CMX">
    <mxGraphModel dx="1008" dy="621" grid="0" gridSize="10" guides="1" tooltips="1" connect="1" arrows="1" fold="1" page="1" pageScale="1" pageWidth="850" pageHeight="1100" math="0" shadow="0">
      <root>
        <mxCell id="0" />
        <mxCell id="1" parent="0" />
        <mxCell id="Uzirrj5flQOt7jsm2RsA-2" value="&lt;p style=&quot;margin: 4px 0px 0px;&quot;&gt;&lt;b&gt;USER&lt;/b&gt;&lt;/p&gt;&lt;hr size=&quot;1&quot; style=&quot;border-style:solid;&quot;&gt;&lt;p style=&quot;margin: 0px 0px 0px 8px;&quot;&gt;&lt;u&gt;MAND&lt;/u&gt;&lt;/p&gt;&lt;p style=&quot;margin: 0px 0px 0px 8px;&quot;&gt;TEN&lt;/p&gt;&lt;p style=&quot;margin: 0px 0px 0px 8px;&quot;&gt;PASSWORD_HASH&lt;/p&gt;&lt;p style=&quot;margin: 0px 0px 0px 8px;&quot;&gt;NGSINH&lt;/p&gt;" style="verticalAlign=top;align=center;overflow=fill;html=1;whiteSpace=wrap;" vertex="1" parent="1">
          <mxGeometry x="155" y="307" width="134" height="103" as="geometry" />
        </mxCell>
        <mxCell id="Uzirrj5flQOt7jsm2RsA-3" value="&lt;p style=&quot;margin: 4px 0px 0px;&quot;&gt;&lt;b style=&quot;&quot;&gt;TASK&lt;/b&gt;&lt;/p&gt;&lt;hr style=&quot;border-style:solid;&quot; size=&quot;1&quot;&gt;&lt;p style=&quot;margin:0px;margin-left:8px;&quot;&gt;&lt;u&gt;MACV&lt;/u&gt;&lt;/p&gt;&lt;p style=&quot;margin:0px;margin-left:8px;&quot;&gt;TEN&lt;/p&gt;&lt;p style=&quot;margin:0px;margin-left:8px;&quot;&gt;NOIDUNG&lt;/p&gt;&lt;p style=&quot;margin:0px;margin-left:8px;&quot;&gt;DATE&lt;/p&gt;&lt;p style=&quot;margin:0px;margin-left:8px;&quot;&gt;PRIORITY&lt;/p&gt;&lt;p style=&quot;margin:0px;margin-left:8px;&quot;&gt;TRANGTHAI&lt;/p&gt;" style="verticalAlign=top;align=center;overflow=fill;html=1;whiteSpace=wrap;" vertex="1" parent="1">
          <mxGeometry x="559" y="276" width="134" height="165" as="geometry" />
        </mxCell>
        <mxCell id="Uzirrj5flQOt7jsm2RsA-4" value="&lt;p style=&quot;margin: 4px 0px 0px;&quot;&gt;&lt;b&gt;CATEGORIES&lt;/b&gt;&lt;/p&gt;&lt;hr size=&quot;1&quot; style=&quot;border-style:solid;&quot;&gt;&lt;p style=&quot;margin: 0px 0px 0px 8px;&quot;&gt;&lt;u&gt;MALOAI&lt;/u&gt;&lt;/p&gt;&lt;p style=&quot;margin: 0px 0px 0px 8px;&quot;&gt;TEN&lt;/p&gt;" style="verticalAlign=top;align=center;overflow=fill;html=1;whiteSpace=wrap;" vertex="1" parent="1">
          <mxGeometry x="559" y="600" width="134" height="77" as="geometry" />
        </mxCell>
        <mxCell id="Uzirrj5flQOt7jsm2RsA-5" value="&lt;p style=&quot;margin: 4px 0px 0px;&quot;&gt;&lt;b&gt;NOTIFICATION&lt;/b&gt;&lt;/p&gt;&lt;hr size=&quot;1&quot; style=&quot;border-style:solid;&quot;&gt;&lt;p style=&quot;margin: 0px 0px 0px 8px;&quot;&gt;&lt;u&gt;MATB&lt;/u&gt;&lt;/p&gt;" style="verticalAlign=top;align=center;overflow=fill;html=1;whiteSpace=wrap;" vertex="1" parent="1">
          <mxGeometry x="155" y="600" width="134" height="77" as="geometry" />
        </mxCell>
        <mxCell id="Uzirrj5flQOt7jsm2RsA-9" value="Thực hiện" style="ellipse;whiteSpace=wrap;html=1;" vertex="1" parent="1">
          <mxGeometry x="354" y="323.5" width="140" height="70" as="geometry" />
        </mxCell>
        <mxCell id="Uzirrj5flQOt7jsm2RsA-11" value="(1, n)" style="endArrow=none;html=1;rounded=0;exitX=1;exitY=0.5;exitDx=0;exitDy=0;entryX=0;entryY=0.5;entryDx=0;entryDy=0;align=right;horizontal=1;verticalAlign=bottom;" edge="1" parent="1" source="Uzirrj5flQOt7jsm2RsA-2" target="Uzirrj5flQOt7jsm2RsA-9">
          <mxGeometry width="50" height="50" relative="1" as="geometry">
            <mxPoint x="464" y="450" as="sourcePoint" />
            <mxPoint x="514" y="400" as="targetPoint" />
          </mxGeometry>
        </mxCell>
        <mxCell id="Uzirrj5flQOt7jsm2RsA-12" value="(1, 1)" style="endArrow=none;html=1;rounded=0;exitX=1;exitY=0.5;exitDx=0;exitDy=0;entryX=0;entryY=0.5;entryDx=0;entryDy=0;align=left;verticalAlign=bottom;" edge="1" parent="1" source="Uzirrj5flQOt7jsm2RsA-9" target="Uzirrj5flQOt7jsm2RsA-3">
          <mxGeometry width="50" height="50" relative="1" as="geometry">
            <mxPoint x="464" y="450" as="sourcePoint" />
            <mxPoint x="514" y="400" as="targetPoint" />
          </mxGeometry>
        </mxCell>
        <mxCell id="Uzirrj5flQOt7jsm2RsA-13" value="Thuộc" style="ellipse;whiteSpace=wrap;html=1;" vertex="1" parent="1">
          <mxGeometry x="556" y="486" width="140" height="70" as="geometry" />
        </mxCell>
        <mxCell id="Uzirrj5flQOt7jsm2RsA-15" value="(1, n)" style="endArrow=none;html=1;rounded=0;exitX=0.5;exitY=0;exitDx=0;exitDy=0;entryX=0.5;entryY=1;entryDx=0;entryDy=0;align=right;" edge="1" parent="1" source="Uzirrj5flQOt7jsm2RsA-13" target="Uzirrj5flQOt7jsm2RsA-3">
          <mxGeometry width="50" height="50" relative="1" as="geometry">
            <mxPoint x="464" y="450" as="sourcePoint" />
            <mxPoint x="514" y="400" as="targetPoint" />
          </mxGeometry>
        </mxCell>
        <mxCell id="Uzirrj5flQOt7jsm2RsA-16" value="(0, n)" style="endArrow=none;html=1;rounded=0;entryX=0.5;entryY=1;entryDx=0;entryDy=0;align=right;verticalAlign=middle;" edge="1" parent="1" target="Uzirrj5flQOt7jsm2RsA-13">
          <mxGeometry width="50" height="50" relative="1" as="geometry">
            <mxPoint x="626" y="600" as="sourcePoint" />
            <mxPoint x="514" y="400" as="targetPoint" />
            <mxPoint as="offset" />
          </mxGeometry>
        </mxCell>
        <mxCell id="Uzirrj5flQOt7jsm2RsA-17" value="Thông báo" style="ellipse;whiteSpace=wrap;html=1;" vertex="1" parent="1">
          <mxGeometry x="354" y="486" width="140" height="70" as="geometry" />
        </mxCell>
        <mxCell id="Uzirrj5flQOt7jsm2RsA-19" value="(1, n)" style="endArrow=none;html=1;rounded=0;exitX=1;exitY=0;exitDx=0;exitDy=0;entryX=0.094;entryY=0.869;entryDx=0;entryDy=0;entryPerimeter=0;align=right;verticalAlign=bottom;" edge="1" parent="1" source="Uzirrj5flQOt7jsm2RsA-5" target="Uzirrj5flQOt7jsm2RsA-17">
          <mxGeometry width="50" height="50" relative="1" as="geometry">
            <mxPoint x="464" y="450" as="sourcePoint" />
            <mxPoint x="343" y="535" as="targetPoint" />
          </mxGeometry>
        </mxCell>
        <mxCell id="Uzirrj5flQOt7jsm2RsA-21" value="(0,n)" style="endArrow=none;html=1;rounded=0;exitX=1;exitY=0;exitDx=0;exitDy=0;entryX=0;entryY=1;entryDx=0;entryDy=0;align=right;verticalAlign=bottom;" edge="1" parent="1" source="Uzirrj5flQOt7jsm2RsA-17" target="Uzirrj5flQOt7jsm2RsA-3">
          <mxGeometry width="50" height="50" relative="1" as="geometry">
            <mxPoint x="464" y="450" as="sourcePoint" />
            <mxPoint x="514" y="400" as="targetPoint" />
          </mxGeometry>
        </mxCell>
      </root>
    </mxGraphModel>
  </diagram>
</mxfile>
